<svg xmlns="http://www.w3.org/2000/svg" fill="#f4f4f4" viewBox="0 0 159 86"><path d="M35.4,50.1H21.7v17.6H36c8,0,11.4-3.1,11.4-8.8C47.4,53,44,50.1,35.4,50.1L35.4,50.1z M34.3,18.3 H21.7v17.7h12.6c7.5,0,10.8-3.2,10.8-8.8C45.1,21.5,42.3,18.3,34.3,18.3L34.3,18.3z M0,1.8h41.1c17.9,0,25.3,8.4,25.3,20.6 c0,9.5-5,15.5-11.6,18.8C63.2,44.1,69,49.9,69,59.7c0,15.6-10.9,24.5-29.5,24.5H0V1.8z"></path><path d="M115.6,78.8c-19.8,0-35.8-16-35.8-35.8S95.8,7.2,115.6,7.2s35.8,16,35.8,35.8 S135.4,78.8,115.6,78.8 M115.6,0c-23.7,0-43,19.3-43,43s19.3,43,43,43s43-19.3,43-43S139.4,0,115.6,0"></path><path d="M118.2,27.8h-12.1v14.3h12.1c4,0,6.5-2.8,6.5-7.2C124.7,30.7,122.3,27.8,118.2,27.8L118.2,27.8z M96.8,20.6h21c10.2,0,16.2,4.5,16.2,14.1c0,5.5-2.8,10.2-8.3,12.2l10.4,16.7h-10.4l-9.3-14.3h-10.4v14.3h-9.3V20.6z"></path></svg>