<?xml version="1.0" encoding="UTF-8"?>
<!-- Generator: Adobe Illustrator 23.1.1, SVG Export Plug-In . SVG Version: 6.00 Build 0)  -->
<svg xmlns="http://www.w3.org/2000/svg" xmlns:xlink="http://www.w3.org/1999/xlink" version="1.1" id="Layer_1" x="0px" y="0px" viewBox="0 0 770 149.1" style="enable-background:new 0 0 770 149.1;" xml:space="preserve">
<style type="text/css">
	.st0{fill:#252422;}
</style>
<path class="st0" d="M770,59.1c-1.3-0.4-2.6-0.9-4.3-0.9c-5.9,0-10,3.3-13.6,8.3v-0.9c0-3.1-0.7-5-2-7.3l-10.3,2.7  c1.4,3.1,1.9,7,1.9,13.6v38H753V77.2c0.4-2.9,1.4-4.1,3.1-5.9c2-1.9,4.6-2.3,7-2.3c1.1,0,2,0.3,3.3,0.6L770,59.1z M732.9,89.1v-2.3  c-0.1-11.9-2.3-18.3-6.6-22.7c-3.6-3.7-9-5.7-14.9-5.7c-6.6,0-11.9,2.3-16.1,7.3c-4.3,4.7-6.6,11.3-6.6,20.4  c0,17.1,9.3,27.9,24.3,27.9c7,0,13.6-2.4,19-7l-4.3-6.7c-4,3.3-8.4,5-13.1,5c-5,0-8.9-1.9-11.3-5.6c-1.4-2.3-2.3-6.3-2.3-9.9v-0.9  h31.9V89.1z M684.9,112.5l-2-6.9c-1.7,0.3-2.9,0.1-3.6-0.7c-0.9-1-1.3-3.4-1.3-8.4V50.8c0-6.9,0-11.4-0.9-15.1l-11.4,2.6  c1,4.1,1.1,7.9,1.1,15.4v45.7c0,5.7,1,8.9,2.4,10.9c1.9,2.6,5,3.7,8.7,3.7C680.4,113.8,682.6,113.5,684.9,112.5 M629.6,44.1  c0-4.1-3.4-7.6-7.6-7.6c-4,0-7.6,3.4-7.6,7.6s3.4,7.6,7.4,7.6C626.1,51.6,629.6,48.3,629.6,44.1 M659,112.5l-2-6.9  c-0.3,0-1,0.1-1.3,0.1c-2.1,0-3.4-1-3.4-5.1V50.8c0-6.9,0-11.4-0.9-15.1L640,38.2c1,4.1,1.1,7.9,1.1,15.4v47.9  c0,7.9,4.4,12.4,10.9,12.4C654.9,113.8,656.9,113.5,659,112.5 M627.6,112.6V58.5l-11.3,1.9v52.3H627.6z M604.6,112.6l-6.3-72.3  h-15.4l-14.1,53.6l-14.6-53.6h-15.9l-6.7,72.3h10.6l5-60.7l16.4,60.7h8.7L589,52.9l4.7,59.7H604.6z M518.6,112.6V73.3  c0-9.9-5.9-14.7-14.1-14.7c-5.4,0-10.3,2.1-16,7c0-2.6-0.6-4.9-1.9-7.3l-10.3,2.9c1.6,3.7,1.9,6.4,1.9,12.3v39h11.1V74.1  c3.4-3.6,8.6-6.3,12.3-6.3c4.3,0,6.1,2.1,6.1,9.4v35.3L518.6,112.6L518.6,112.6z M469,107.8c-3.9-2.4-4.7-4.6-4.7-10.7  c0-0.6,0.1-1,0.1-1.6l0.3-15.7v-3.4c0-5.3-0.3-7-1-9.1c-2-5.7-7.9-8.7-15.9-8.7c-4.7,0-9.4,0.9-14.3,3c-3,1.4-5.4,2.3-8.4,4.3l5,7.9  c2.3-1.6,3.7-2.4,6.3-3.6c3.7-1.7,6.9-2.4,9.7-2.4c3,0,4.9,0.7,6.1,2.3c1.1,1.4,1.4,3.4,1.4,7.1v3c-1.6-0.1-2.3-0.1-3.4-0.1  c-17.3,0-26.7,6.3-26.7,18.7c0,4,1.3,8.7,4.1,11.4c3,2.7,7,4.3,13.3,4.3c4.7,0,8.1-1.1,11.3-3.3c1.1-1,1.9-1.6,3.4-3.1  c1.1,3.3,4,5.9,7.4,7.1L469,107.8z M414.1,112.6V73.8c0-5.9-1.3-9.4-4.1-12c-2.1-2.1-5.9-3.1-9.7-3.1c-5.7,0-11.9,3-16.1,7.9  c-2.3-5-7-7.9-12.4-7.9c-5,0-10.6,2.7-14.3,6.7c-0.3-2.6-1-4.9-2-6.6l-10.1,2.6c1.4,3.4,1.9,5.4,1.9,13.1v38.3h10.7V73.6  c4.3-3.9,7.9-5.4,11.1-5.4c4.6,0,5.9,2.3,5.9,8.4v36.1h10.9V74.5c4.4-4.4,8.3-6.6,11.6-6.6c4,0,5.6,2.3,5.6,7.7v37.1L414.1,112.6  L414.1,112.6z M342.1,59.1c-1.1-0.4-2.6-0.9-4.3-0.9c-5.4,0-9.9,3.3-13.3,8.3v-0.9c0-3.1-0.9-5-1.9-7.3l-10.4,2.7  c1.3,3.1,1.9,7,1.9,13.6v38h11.3V77.2c0.4-2.9,1.3-4.1,3-5.9c2-1.9,4.6-2.3,7-2.3c1.4,0,2,0.3,3.3,0.6L342.1,59.1z M305,89.1v-2.3  c-0.1-11.9-2.3-18.3-6.7-22.7c-3.6-3.7-8.9-5.7-14.7-5.7c-6.7,0-12,2.3-16.3,7.3c-4.1,4.7-6.4,11.3-6.4,20.4  c0,17.1,9.1,27.9,24.1,27.9c7.3,0,13.6-2.4,19.1-7l-4.3-6.7c-4,3.3-8.3,5-13.1,5c-4.9,0-8.9-1.9-11.4-5.6c-1.6-2.4-2.1-6.1-2.1-9.9  v-0.9H305L305,89.1L305,89.1z M251.9,112.6V40.3h-11.4v29.3h-26.3V40.3H203v72.3h11.1V78.9h26.3v33.7H251.9z M721.1,80.8h-20  c0.1-9.1,3.7-14,10.3-14C717.4,66.8,721.1,72.3,721.1,80.8 M453.6,87.5l-0.3,12.6c-2.3,3.7-6.1,6-10,6c-5,0-7.7-3-7.7-8.3  c0-3.1,0.9-5.4,2.7-7.1c2.1-2.1,6.3-3.3,13-3.3C452,87.3,452.7,87.5,453.6,87.5 M293.4,80.8h-20.3c0.1-9.1,3.9-14,10.3-14  C289.7,66.8,293.4,72.3,293.4,80.8"></path>
<path class="st0" d="M116.1,113.8v-78h-1.4c-1.7,13.4-4.4,24.9-7.7,34.4c-7.6,23-18.4,34.6-32.4,34.6S49.8,93.3,42,70.2  c-3.3-9.5-5.8-20.9-7.5-34.4h-1.4v78c12.5-3.7,26.3-5.5,41.5-5.5C89.6,108.2,103.5,110.1,116.1,113.8 M149.1,74.6  c0,20.5-7.3,38.1-21.8,52.7s-32.1,21.8-52.7,21.8c-20.5,0-38.1-7.3-52.7-21.8C7.3,112.7,0,95.2,0,74.6c0-20.5,7.3-38.1,21.9-52.8  S54.1,0,74.6,0s38.1,7.3,52.7,21.9C141.8,36.5,149.1,54.1,149.1,74.6"></path>
</svg>
