<svg xmlns="http://www.w3.org/2000/svg" viewBox="0 0 544.5 125.49"><path d="M0,4.24H61.05C87.67,4.24,98.61,16.36,98.61,34c0,11.18-7.38,22.3-17.21,27.05,12.38,4.07,21.11,14.24,21.11,26.54,0,22.55-16.11,35.36-43.75,35.36H0ZM50.87,28H32.22V53.42H50.87C62.07,53.42,67,48.84,67,40.7S62.75,28,50.87,28Zm1.7,45.79H32.22V99.21h21.2c11.87,0,17-4.41,17-12.72C70.38,78,65.29,73.77,52.57,73.77Z"></path><path d="M218.76,81.68h31.37c.68,12.59,10.26,20,23.31,20,11.54,0,18.83-4.36,18.83-12.06,0-5.41-3-8.73-13.23-10.83L253.6,73.38C233.76,69.19,221,58.87,221,39c0-23.6,20.52-38.1,48.67-38.1,29.34,0,52.49,11.62,52.49,40.64H290.83C290,30.47,281.75,25,269.88,25c-10.68,0-16.62,4.89-16.62,10.83,0,5.42,3.06,8.74,13.23,10.84l25.44,5.42c19.84,4.19,32.56,14.5,32.56,34.43,0,24.47-20,39-51.89,39C237.32,125.49,219.44,109,218.76,81.68Z"></path><path d="M434.89,97.88c14.75,0,23.66-9,25.52-19.66h33.07c-2.88,31.8-28.58,47.27-58.59,47.27-39,0-61.73-25-61.73-62.74S395.88,0,434.89,0c30,0,55.71,15.82,58.59,47.63H460.41c-1.86-10.66-10.77-20-25.52-20-17.3,0-28,14.86-28,35.14S417.59,97.88,434.89,97.88Z"></path><rect x="332.38" y="3.39" width="32.22" height="118.71"></rect><path d="M189.93,122.1H223L181.45,3.39h-40.7L99.21,122.1h33.06l6.29-20.35h45.08Zm-43.5-45.79,14.41-46.63h.52l14.42,46.63Z"></path><path d="M521.18.85A23.32,23.32,0,1,0,544.5,24.17,23.31,23.31,0,0,0,521.18.85Zm0,42.75a19.44,19.44,0,1,1,19.43-19.43A19.43,19.43,0,0,1,521.18,43.6Z"></path><path d="M511.47,11.86h11.76c5.71,0,9.06,2.43,9.06,7.65a6.73,6.73,0,0,1-4.63,6.6l5.83,9.07h-5.83l-5.18-7.78h-5.83v7.78h-5.18Zm12,3.89h-6.78v7.77h6.78c2.26,0,3.64-1.55,3.64-3.91A3.53,3.53,0,0,0,523.43,15.75Z"></path></svg>