<?xml version="1.0" encoding="UTF-8"?>
<svg xmlns="http://www.w3.org/2000/svg" viewBox="0 0 55.8 33" width="55.8" height="33" fill="#252422">
  <path d="M45.5,16.5c6.1,2.7,10.1,6.7,10.3,11.2c0,0-1.6,1.2-6.8,3.2c-4.6,1.7-8.1,2.1-8.1,2.1V23c0-1.5-0.6-3-1.7-4.4 c-3.5,0.8-7.3,1.3-11.3,1.3l0,0c-4,0-7.9-0.5-11.3-1.3c-1.1,1.4-1.7,2.9-1.7,4.4v10c0,0-3.5-0.4-8.1-2.1C1.6,29,0,27.7,0,27.7 c0.2-4.5,4.2-8.5,10.3-11.2C4.2,13.8,0.2,9.8,0,5.3c0,0,1.6-1.2,6.8-3.2C11.4,0.4,14.9,0,14.9,0v10c0,1.5,0.6,3,1.7,4.4 c3.5-0.8,7.3-1.3,11.3-1.3l0,0c4,0,7.9,0.5,11.3,1.3c1.1-1.4,1.7-2.9,1.7-4.4V0c0,0,3.5,0.4,8.1,2.1c5.2,1.9,6.8,3.2,6.8,3.2 C55.6,9.7,51.6,13.8,45.5,16.5 M27.9,14.2L27.9,14.2h-0.1c-3.6,0-6.6,0.9-8.7,2.2c2.2,1.4,5.1,2.2,8.8,2.2H28l0,0h0.1 c3.6,0,6.6-0.9,8.7-2.2c-2.2-1.4-5.1-2.2-8.8-2.2"></path>
</svg>
